<svg width="233" height="147" viewBox="0 0 233 147" fill="none" xmlns="http://www.w3.org/2000/svg">
<g clip-path="url(#clip0_129_249)">
<path d="M165.997 41.7539C165.997 50.5793 163.54 58.851 159.254 65.9692C158.23 67.6664 157.107 69.2977 155.88 70.8532C154.62 72.4614 153.257 73.9905 151.804 75.4306C148.647 78.5547 145.057 81.2669 141.127 83.4716C133.754 87.6174 125.181 89.9934 116.032 90H115.998C106.865 90 98.3056 87.6371 90.9392 83.5112C86.7326 81.1582 82.9194 78.2318 79.6062 74.8374C79.5629 74.7946 79.5195 74.7484 79.4729 74.7023C78.0429 73.2259 76.7096 71.6639 75.4797 70.026C74.4964 68.721 73.5831 67.3665 72.7431 65.9692C68.4566 58.851 66 50.5793 66 41.7572C66 32.9352 68.4599 24.6602 72.7464 17.5419C73.8197 15.7624 75.0064 14.0553 76.2997 12.4273C77.5696 10.829 78.9429 9.30648 80.4062 7.87624C83.5294 4.82131 87.0726 2.16844 90.9425 0V14.8561C90.5892 15.1626 90.2459 15.4789 89.9059 15.8019C89.3126 16.3621 88.7426 16.9421 88.1926 17.5419C87.3593 18.4449 86.5693 19.394 85.8327 20.3793C81.3628 26.3343 78.7296 33.6569 78.7296 41.5727V41.7572C78.7696 49.3039 81.2028 56.3068 85.336 62.0904C86.3093 63.4548 87.3793 64.7499 88.5292 65.9692C88.7859 66.2428 89.0492 66.5097 89.3159 66.7733C89.3592 66.8162 89.4059 66.8623 89.4492 66.9052C89.9359 67.383 90.4325 67.8444 90.9425 68.2959C97.5689 74.1322 106.369 77.7111 116.035 77.7572H116.225C125.781 77.7572 134.508 74.3068 141.127 68.6221C141.541 68.2695 141.944 67.907 142.341 67.5346C142.884 67.0271 143.407 66.5064 143.914 65.9692C144.811 65.0201 145.661 64.0249 146.451 62.9868C150.987 57.0351 153.68 49.6994 153.72 41.7539V41.5727C153.72 33.7195 151.124 26.4497 146.717 20.5178C145.951 19.483 145.127 18.491 144.254 17.5419C143.737 16.9784 143.201 16.4313 142.647 15.9008C142.154 15.4295 141.647 14.9681 141.127 14.5233V0.0362505C145.164 2.30355 148.834 5.09813 152.05 8.32772C153.5 9.78103 154.857 11.3266 156.11 12.948C157.244 14.4178 158.294 15.9502 159.257 17.5419C163.543 24.6569 166 32.9286 166 41.7539H165.997Z" fill="#285EE1" stroke="#285EE1" stroke-width="0.25" stroke-miterlimit="10"/>
<path d="M132 57.3333C132 58.4833 131.885 59.6033 131.663 60.6867C130.139 68.23 123.568 73.92 115.665 74H115.5C107.425 74 100.703 68.1367 99.2805 60.3967L109.019 52.18C107.91 53.6 107.25 55.3867 107.25 57.3333C107.25 61.9367 110.943 65.6667 115.5 65.6667C115.556 65.6667 115.609 65.6667 115.665 65.6633C120.146 65.5767 123.75 61.88 123.75 57.3333C123.75 55.4533 123.133 53.72 122.093 52.3267C121.387 51.3767 120.486 50.5867 119.447 50.0133L115.665 46.7133L115.391 46.4733L109.883 41.66L109.61 41.4233L109.039 40.9233L106.138 38.3867L103.422 36.02C100.68 33.0467 99 29.0533 99 24.6667C99 23.55 99.1089 22.46 99.3168 21.4033C100.818 13.7633 107.494 8 115.5 8H115.665C123.724 8.08 130.403 14 131.749 21.7667L121.374 30.52C122.842 29.0133 123.75 26.95 123.75 24.6667C123.75 23.8133 123.625 22.99 123.387 22.2167C123.361 22.13 123.334 22.0467 123.305 21.96C123.248 21.79 123.186 21.6233 123.116 21.46C123.083 21.3767 123.047 21.2933 123.004 21.21C122.661 20.4367 122.199 19.73 121.645 19.1067C121.562 19.0133 121.476 18.92 121.387 18.83C121.305 18.7433 121.219 18.66 121.133 18.58C121.123 18.57 121.113 18.5567 121.1 18.5467C121.008 18.46 120.912 18.3767 120.813 18.2933C120.721 18.2133 120.625 18.1333 120.526 18.06C120.516 18.05 120.509 18.0433 120.5 18.04C120.41 17.97 120.318 17.9 120.226 17.8367C120.212 17.8233 120.196 17.8133 120.183 17.8067C120.113 17.7567 120.044 17.71 119.971 17.6633C119.922 17.63 119.876 17.6 119.826 17.57C119.727 17.51 119.628 17.45 119.526 17.3933C119.427 17.3367 119.328 17.2833 119.226 17.2333C119.203 17.2167 119.176 17.2033 119.153 17.1933C119.087 17.16 119.021 17.1267 118.952 17.1C118.886 17.0667 118.817 17.0333 118.747 17.0067C118.635 16.9567 118.519 16.91 118.404 16.8667C118.335 16.84 118.265 16.8133 118.196 16.79C118.137 16.77 118.081 16.75 118.021 16.73C117.958 16.71 117.892 16.69 117.826 16.67C117.757 16.65 117.681 16.63 117.609 16.61C117.49 16.5767 117.371 16.55 117.249 16.5233C117.173 16.5067 117.094 16.49 117.015 16.4767C116.952 16.4633 116.893 16.45 116.83 16.4433C116.764 16.43 116.698 16.42 116.629 16.4133C116.563 16.4 116.497 16.3933 116.431 16.3867C116.315 16.3733 116.2 16.3633 116.084 16.3567C115.952 16.3467 115.82 16.34 115.688 16.3367H115.665C115.609 16.3333 115.556 16.3333 115.5 16.3333C110.943 16.3333 107.25 20.0633 107.25 24.6667C107.25 26.7033 107.973 28.5667 109.174 30.0133C109.745 30.7033 110.425 31.3 111.187 31.77L115.46 35.5067L115.665 35.6867L121.031 40.37L121.816 41.0567L122.235 41.4233L124.341 43.2633L128.004 46.46C130.495 49.3767 132 53.1767 132 57.3333Z" fill="#547FE7" stroke="#547FE7" stroke-width="0.25" stroke-miterlimit="10"/>
</g>
<defs>
<clipPath id="clip0_129_249">
<rect width="233" height="147" fill="white"/>
</clipPath>
</defs>
</svg>
