<svg width="614" height="248" viewBox="0 0 614 248" fill="none" xmlns="http://www.w3.org/2000/svg">
<path d="M612.468 193.077C550.531 167.502 486.457 140.566 447.403 100.983C431.103 84.4507 419.59 66.052 400.023 50.9236C380.456 35.7951 349.256 24.1033 320.193 28.6903C300.444 31.8014 285.706 41.7134 274.496 52.2403C263.286 62.7673 254.385 74.4157 240.695 83.6838C224.797 94.4495 203.395 101.352 181.832 107.219C157.1 113.933 131.804 119.525 106.095 123.961C79.4006 128.606 51.0531 132.31 30.0849 143.409C12.7558 152.576 2.03984 166.46 1.07208 180.98C0.104314 195.501 8.92509 210.456 24.9235 221.497" stroke="#547FE7" stroke-width="0.5" stroke-miterlimit="10"/>
<path d="M612.538 195.646C573.485 180.221 533.645 163.942 499.713 144.226C479.551 132.506 461.597 119.627 447.101 104.94C437.746 95.4696 429.963 85.4057 421.395 75.6022C415.176 68.2647 408.093 61.3226 400.225 54.8522C382.734 40.8162 356.03 29.5296 330.173 30.3471C327.807 30.4228 325.45 30.604 323.116 30.8898C306.251 32.9879 293.146 40.194 282.682 48.4058C281.337 49.438 280.067 50.4846 278.871 51.5458C267.853 61.0453 258.86 71.6447 245.09 80.1386C230.735 88.9364 211.884 95.0138 192.669 100.483C190.401 101.127 188.133 101.771 185.855 102.401C175.643 105.251 165.421 108.03 155.199 110.656C143.394 113.724 131.509 116.581 119.512 119.2C117.073 119.726 114.623 120.245 112.163 120.756C86.4975 126.081 59.138 130.531 38.3008 141.861C20.9617 151.266 8.47145 164.369 6.18309 178.926C6.10244 179.425 6.03188 179.924 5.98147 180.423C5.28414 187.81 7.03207 195.211 11.0824 202.02C15.7293 209.865 22.6943 216.893 31.4962 222.618" stroke="#547FE7" stroke-width="0.5" stroke-miterlimit="10"/>
<path d="M612.619 198.214C573.384 183.426 533.464 167.465 499.451 147.945C479.168 136.326 461.254 123.484 446.798 108.876C437.453 99.4706 429.661 89.3995 421.193 79.596C415.047 72.2681 408.104 65.3007 400.426 58.7591C383.349 44.5495 357.653 32.9011 332.834 32.7998C330.573 32.7898 328.314 32.8817 326.07 33.0748C309.94 34.4711 297.248 40.7584 287.016 48.0296C285.733 48.946 284.486 49.8769 283.276 50.8223C272.45 59.3017 263.397 68.9099 249.515 76.5717C235.06 84.5954 215.976 90.1808 196.823 95.6433L190.018 97.5823C179.816 100.476 169.735 103.472 159.775 106.315C148.203 109.65 136.801 112.826 125.289 115.764C122.937 116.367 120.584 116.955 118.232 117.529C93.5944 123.542 67.243 128.736 46.5167 140.291C28.603 150.311 14.1974 163.161 11.1529 178.282C11.0521 178.795 10.9614 179.316 10.8808 179.837C9.88808 187.579 11.6827 195.374 16.0926 202.476C21.1424 210.647 28.6389 217.919 38.0487 223.776" stroke="#547FE7" stroke-width="0.5" stroke-miterlimit="10"/>
<path d="M612.69 200.783C573.283 186.631 533.272 170.982 499.179 151.664C478.785 140.139 460.922 127.369 446.496 112.855C437.171 103.45 429.358 93.451 421.001 83.6331C414.927 76.3113 408.114 69.3181 400.618 62.7094C383.964 48.3262 359.286 36.3378 335.485 35.2959C333.327 35.1982 331.162 35.1982 329.003 35.2959C313.499 36.0194 301.341 41.3733 291.331 47.704C290.074 48.5095 288.851 49.3246 287.662 50.1494C276.986 57.5726 267.893 66.1533 253.921 73.0411C239.334 80.2327 219.989 85.3406 200.875 90.803C198.597 91.4542 196.332 92.1077 194.081 92.7637C183.899 95.7518 173.919 98.8918 164.282 101.967C153.001 105.584 142.104 109.079 131.015 112.342C128.763 113.007 126.512 113.663 124.26 114.31C100.651 121.045 75.3077 126.964 54.7024 138.728C36.2039 149.291 19.883 161.967 16.0926 177.645C15.9615 178.188 15.8506 178.723 15.7498 179.266C14.3083 187.123 16.3547 195.378 21.0625 202.946C26.534 211.44 34.5754 218.951 44.6013 224.933" stroke="#547FE7" stroke-width="0.5" stroke-miterlimit="10"/>
<path d="M612.76 203.351C573.192 189.836 533.121 174.498 498.906 155.39C478.402 143.952 460.599 131.261 446.193 116.806C436.889 107.473 429.116 97.4882 420.8 87.6486C414.801 80.3401 408.123 73.3303 400.809 66.667C384.579 52.1029 360.909 39.7889 338.136 37.7992C336.079 37.6204 334.009 37.531 331.937 37.5315C317.118 37.5315 305.434 41.9955 295.646 47.3856C294.416 48.0657 293.216 48.7675 292.047 49.4766C281.552 55.8361 272.429 63.404 258.316 69.4959C243.598 75.8699 224.041 80.5076 204.938 85.9628C202.659 86.6139 200.391 87.2723 198.153 87.9452C187.982 91.0056 178.173 94.3265 168.788 97.6256C157.81 101.482 147.356 105.331 136.811 108.927C134.664 109.65 132.517 110.374 130.349 111.097C107.778 118.535 83.453 125.198 62.9485 137.143C43.8855 148.278 25.6492 160.744 21.1027 176.987C20.9414 177.544 20.8003 178.108 20.6793 178.672C18.9152 186.841 21.0523 195.508 26.1029 203.394C31.5969 211.982 40.3975 219.702 51.1639 226.069" stroke="#547FE7" stroke-width="0.5" stroke-miterlimit="10"/>
<path d="M612.831 205.92C573.092 193.041 532.899 178.014 498.644 159.109C478.029 147.772 460.256 135.147 445.891 120.763C436.597 111.466 428.834 101.525 420.608 91.6641C414.662 84.3601 408.118 77.3153 401.011 70.5667C385.154 55.8579 362.542 43.1822 340.798 40.252C338.84 39.9808 336.86 39.7972 334.87 39.7021C320.757 39.0582 309.537 42.5599 299.96 47.0095C298.761 47.5738 297.581 48.1599 296.432 48.7531C286.119 54.0998 276.875 60.6475 262.732 65.9508C247.882 71.5145 228.063 75.6746 209.021 81.1443C206.742 81.7955 204.474 82.4683 202.236 83.1484C192.085 86.274 182.427 89.7757 173.304 93.2775C162.628 97.4014 152.658 101.576 142.598 105.505C140.581 106.301 138.495 107.096 136.428 107.878C114.885 116.032 91.5782 123.44 71.1745 135.617C51.547 147.33 31.3752 159.579 26.0827 176.357C25.9013 176.936 25.74 177.515 25.5988 178.101C23.5121 186.588 25.7299 195.668 31.1232 203.865C36.9802 212.778 46.3755 220.708 57.7367 227.227" stroke="#547FE7" stroke-width="0.5" stroke-miterlimit="10"/>
<path d="M612.911 208.481C573.001 196.239 532.708 181.537 498.372 162.835C477.646 151.584 459.924 139.032 445.589 124.721C436.314 115.467 428.562 105.555 420.387 95.6794C414.511 88.3795 408.101 81.3082 401.182 74.4953C385.739 59.6128 364.145 46.597 343.429 42.7263C341.575 42.373 339.693 42.0976 337.794 41.9015C324.336 40.5775 313.6 43.1459 304.255 46.6621C303.085 47.1034 301.926 47.5737 300.807 48.0512C290.726 52.3923 281.341 57.8981 267.107 62.4055C252.126 67.1517 232.086 70.8416 213.073 76.2751C210.788 76.9311 208.53 77.6087 206.299 78.3081C196.513 81.4401 186.996 84.9892 177.8 88.9364C167.417 93.328 157.921 97.8282 148.344 102.082C146.388 102.951 144.442 103.812 142.477 104.665C121.962 113.521 99.6833 121.682 79.3804 134.054C59.0775 146.426 37.0407 158.393 31.0425 175.757C30.8308 176.35 30.6393 176.958 30.478 177.558C28.0687 186.356 30.3873 195.863 36.1132 204.364C42.323 213.603 52.3233 221.728 64.2792 228.413" stroke="#547FE7" stroke-width="0.5" stroke-miterlimit="10"/>
<path d="M612.982 211.085C572.9 199.509 532.516 185.09 498.06 166.59C477.223 155.434 459.541 142.953 445.246 128.715C435.992 119.504 428.24 109.629 420.175 99.731C414.247 92.4598 408.179 85.261 401.354 78.4601C386.333 63.404 365.758 50.0554 346.06 45.2368C344.304 44.8045 342.517 44.4399 340.707 44.1444C327.945 42.1403 317.713 43.7681 308.559 46.351C307.4 46.6766 306.281 47.0239 305.172 47.3929C295.232 50.6631 285.797 55.1778 271.492 58.8966C256.371 62.8252 236.098 66.0375 217.126 71.471C214.834 72.127 212.579 72.8119 210.361 73.5258C200.631 76.7181 191.246 80.428 182.286 84.6243C172.205 89.2909 163.193 94.1094 154.06 98.7037C152.215 99.637 150.35 100.563 148.495 101.482C129.089 111.01 107.839 119.924 87.6165 132.498C66.8599 145.384 42.8271 157.199 36.0427 175.12C35.8007 175.742 35.589 176.364 35.3975 176.994C32.6656 186.103 35.0749 196.022 41.1537 204.834C47.7163 214.392 58.2912 222.755 70.862 229.571" stroke="#547FE7" stroke-width="0.5" stroke-miterlimit="10"/>
<path d="M613.052 213.618C572.81 202.649 532.325 188.57 497.828 170.28C476.89 159.217 459.248 146.802 444.984 132.658C435.74 123.484 427.998 113.644 420.014 103.718C414.157 96.4391 408.199 89.2475 401.586 82.3598C386.978 67.1662 367.422 53.4197 348.752 47.6823C347.105 47.1653 345.423 46.7089 343.711 46.3149C331.614 43.6379 321.896 44.3325 312.944 45.9748C311.815 46.1774 310.717 46.4162 309.628 46.6983C299.88 48.9267 290.343 52.4212 275.968 55.3804C260.695 58.4987 240.211 61.2407 221.269 66.667C218.981 67.3254 216.722 68.0199 214.515 68.7507C204.828 71.9963 195.576 75.8711 186.873 80.3267C177.094 85.261 168.546 90.4051 159.937 95.3249L154.624 98.2189C136.186 108.485 115.974 118.18 95.8324 130.928C74.5315 144.407 48.543 155.991 41.0126 174.476C40.7505 175.113 40.5186 175.757 40.3069 176.408C37.2826 185.813 39.7524 196.167 46.1639 205.29C53.0895 215.173 64.3095 223.747 77.4146 230.714" stroke="#547FE7" stroke-width="0.5" stroke-miterlimit="10"/>
<path d="M613.163 216.186C572.749 205.854 532.184 192.093 497.606 173.999C476.507 163.03 458.926 150.695 444.671 136.565C435.457 127.434 427.715 117.631 419.822 107.697C414.025 100.411 408.179 93.2268 401.787 86.2522C387.593 70.8561 369.055 56.8273 351.383 50.1205C349.77 49.5127 348.177 48.9557 346.584 48.4854C337.324 45.6581 327.178 44.6589 317.199 45.5914C316.11 45.6782 315.021 45.7939 313.953 45.9314C304.416 47.118 294.799 49.5923 280.313 51.7194C264.889 54.0129 244.193 56.292 225.281 61.711C222.983 62.367 220.731 63.0688 218.527 63.8164C208.88 67.1194 199.755 71.1555 191.308 75.8555C181.822 81.0647 173.748 86.5344 165.622 91.7725C163.969 92.8433 162.316 93.9069 160.642 94.9632C143.313 106.018 124.119 116.451 104.079 129.38C82.203 143.46 54.2689 154.811 45.9925 173.861C45.7001 174.52 45.438 175.185 45.2062 175.851C41.819 185.596 44.4199 196.34 51.1741 205.775C58.4525 215.983 70.237 224.774 83.9873 231.893" stroke="#547FE7" stroke-width="0.5" stroke-miterlimit="10"/>
<path d="M613.163 218.754C572.578 209.06 531.921 195.602 497.233 177.725C476.063 166.872 458.522 154.573 444.308 140.551C435.105 131.464 427.373 121.697 419.56 111.741C413.834 104.448 408.108 97.2133 401.918 90.2097C388.208 74.6327 370.678 60.2785 354.085 52.6383C352.572 51.9148 351.06 51.2998 349.568 50.7282C340.96 47.3589 331.365 45.4949 321.564 45.2875C320.505 45.2875 319.447 45.2875 318.388 45.2875C309.063 45.4466 299.234 46.8792 284.768 48.2466C269.183 49.6936 248.276 51.5241 229.404 56.9286C227.106 57.5943 224.858 58.3033 222.66 59.0557C213.051 62.4213 204.059 66.6253 195.885 71.5723C186.712 77.0493 179.111 82.8373 171.459 88.4227C169.907 89.5514 168.354 90.6873 166.782 91.8159C150.451 103.508 132.305 114.715 112.274 127.825C89.8746 142.505 59.9949 153.618 50.9624 173.232C50.6499 173.905 50.3676 174.592 50.1156 175.286C46.3958 185.336 49.1075 196.5 56.1641 206.245C63.8055 216.772 76.1848 225.78 90.5299 233.051" stroke="#547FE7" stroke-width="0.5" stroke-miterlimit="10"/>
<path d="M613.274 221.323C572.517 212.257 531.76 199.126 497.021 181.443C475.751 170.663 458.25 158.465 444.067 144.545C434.883 135.494 427.161 125.734 419.429 115.793C413.763 108.493 408.148 101.229 402.17 94.1745C388.823 78.4239 372.301 63.7368 356.716 55.1054C355.304 54.3312 353.903 53.5933 352.482 52.9349C342.492 48.2466 334.255 46.134 325.858 44.9402C324.85 44.7882 323.792 44.6725 322.753 44.5784C313.68 43.7102 303.72 44.1009 289.154 44.687C273.417 45.3164 252.298 46.6766 233.457 52.0884C231.158 52.754 228.914 53.4775 226.723 54.2589C217.145 57.69 208.28 62.0609 200.381 67.2458C191.5 72.9976 184.373 79.1112 177.195 85.0222C175.734 86.2232 174.282 87.4243 172.8 88.6397C157.507 100.997 140.42 112.986 120.49 126.262C97.5563 141.549 65.7209 152.424 55.9726 172.566C55.6299 173.29 55.3275 173.97 55.0452 174.686C51.0129 185.054 53.7952 196.63 61.2248 206.694C69.229 217.546 82.2031 226.764 97.143 234.187" stroke="#547FE7" stroke-width="0.5" stroke-miterlimit="10"/>
<path d="M613.345 223.891C572.416 215.463 531.579 202.642 496.759 185.162C475.368 174.476 457.918 162.35 443.804 148.459C434.641 139.459 426.919 129.764 419.268 119.772C413.673 112.465 408.179 105.179 402.402 98.067C389.479 82.1499 373.974 67.1156 359.417 57.5508C358.087 56.6826 356.786 55.8579 355.456 55.0909C346.151 49.7443 338.429 46.7055 330.253 44.5495C329.245 44.2818 328.237 44.0503 327.229 43.826C318.328 41.9449 308.277 41.272 293.64 41.0912C277.752 40.8886 256.431 41.8147 237.63 47.1975C235.318 47.8631 233.074 48.5867 230.896 49.368C221.301 52.8702 212.526 57.4252 204.887 62.8686C196.319 68.8881 189.655 75.3201 182.982 81.5639C181.621 82.8373 180.27 84.1034 178.889 85.3695C163.592 99.3862 146.815 112.537 128.706 124.706C105.248 140.623 71.4467 151.23 60.9223 171.966C60.5493 172.689 60.2166 173.413 59.9142 174.136C55.5391 184.822 58.4222 196.818 66.1946 207.186C74.5516 218.357 88.1306 227.791 103.665 235.359" stroke="#547FE7" stroke-width="0.5" stroke-miterlimit="10"/>
<path d="M613.415 226.46C572.326 218.668 531.387 206.202 496.477 188.888C474.985 178.289 457.565 166.235 443.452 152.416C434.298 143.46 426.586 133.801 419.026 123.787C413.491 116.473 408.118 109.158 402.553 101.996C390.053 85.8977 375.547 70.5377 362.018 60.0324C360.788 59.0847 359.579 58.1586 358.339 57.3048C349.719 51.2925 342.502 47.335 334.477 44.2022C333.469 43.826 332.521 43.4787 331.513 43.1459C322.814 40.2519 312.652 38.5082 297.944 37.5532C281.905 36.5186 260.373 36.9672 241.602 42.3717C239.283 43.0374 237.045 43.7681 234.868 44.5422C225.33 48.1095 216.714 52.8225 209.394 58.4769C201.117 64.7786 194.938 71.5 188.748 78.1055C187.478 79.4368 186.218 80.7753 184.947 82.1137C171.661 95.9182 156.721 109.484 136.922 123.107C112.93 139.61 77.1626 149.993 65.882 171.293C65.4889 172.016 65.1361 172.776 64.8135 173.528C60.1158 184.533 63.0997 196.941 71.2148 207.62C79.9247 219.109 94.0984 228.768 110.228 236.487" stroke="#547FE7" stroke-width="0.5" stroke-miterlimit="10"/>
<path d="M613.486 229.028C572.225 221.873 531.196 209.682 496.215 192.607C475.744 182.822 457.793 170.562 443.159 156.374C434.026 147.461 426.314 137.831 418.834 127.803C413.37 120.481 408.108 113.145 402.705 105.924C390.608 89.6454 377.14 73.9527 364.629 62.5141C363.49 61.4795 362.381 60.4666 361.242 59.5116C353.298 52.8409 346.574 47.9355 338.752 43.8622C337.814 43.3774 336.846 42.9072 335.868 42.4514C327.36 38.5445 317.078 35.7373 302.309 34.0153C286.119 32.1342 264.365 32.1415 245.634 37.5388C243.316 38.2044 241.078 38.9858 238.91 39.7527C229.415 43.4049 220.953 48.2976 213.96 54.1793C205.996 60.7488 200.28 67.8246 194.575 74.7268C193.419 76.1304 192.249 77.534 191.067 78.9376C178.828 93.4511 164.937 107.798 145.198 121.588C120.631 138.735 82.9087 148.864 70.8721 170.699C70.4487 171.459 70.0757 172.233 69.733 173.007C64.7631 184.316 67.7874 197.143 76.2351 208.133C85.3079 219.948 100.076 229.839 116.801 237.689" stroke="#547FE7" stroke-width="0.5" stroke-miterlimit="10"/>
<path d="M613.567 231.597C572.124 225.085 531.014 213.198 495.943 196.333C475.439 186.663 457.469 174.477 442.857 160.332C433.734 151.454 426.042 141.868 418.663 131.818C413.259 124.489 408.118 117.131 402.967 109.853C391.323 93.4004 378.833 77.3748 367.361 64.9957C366.353 63.8742 365.284 62.7745 364.246 61.7254C356.978 54.3964 350.748 48.5939 343.137 43.5221C342.229 42.9192 341.292 42.3332 340.324 41.764C332.007 36.8442 321.624 32.959 306.785 30.4774C290.444 27.7425 268.478 27.3084 249.778 32.7058C247.486 33.3658 245.245 34.1121 243.064 34.9414C233.54 38.656 225.165 43.719 218.446 49.8238C210.785 56.6682 205.543 64.0624 200.301 71.2974C199.239 72.7444 198.17 74.2179 197.095 75.718C185.885 90.9115 173.062 106.069 153.374 120.025C128.333 137.773 88.6245 147.649 75.852 170.07C75.3984 170.851 74.9952 171.64 74.6322 172.436C69.2894 184.062 72.4548 197.303 81.2453 208.611C90.6709 220.751 106.034 230.837 123.363 238.853" stroke="#547FE7" stroke-width="0.5" stroke-miterlimit="10"/>
<path d="M613.637 234.158C572.033 228.276 530.823 216.721 495.691 200.052C475.152 190.501 457.159 178.389 442.564 164.289C433.492 155.455 425.77 145.905 418.451 135.834C413.118 128.497 408.098 121.111 403.148 113.781C391.928 97.1409 380.456 80.797 370.002 67.4773C369.055 66.269 368.117 65.0825 367.17 63.9321C360.577 55.9736 354.841 49.2305 347.441 43.182C346.564 42.4585 345.647 41.7351 344.699 41.0694C336.564 35.1367 326.09 30.1807 311.18 26.9394C294.698 23.3219 272.51 22.4826 253.84 27.8727C251.543 28.5313 249.301 29.285 247.126 30.1301C237.606 33.9277 229.35 39.1664 222.932 45.4828C215.583 52.6093 210.835 60.3218 206.067 67.9114C205.099 69.4452 204.128 70.9838 203.153 72.5273C192.972 88.4444 181.228 104.361 161.58 118.499C136.045 136.861 94.3404 146.484 80.8219 169.462C80.3481 170.258 79.9247 171.068 79.5316 171.886C73.8661 183.831 77.1222 197.483 86.2555 209.096C96.0138 221.533 112.002 231.835 129.926 240.025" stroke="#547FE7" stroke-width="0.5" stroke-miterlimit="10"/>
<path d="M613.708 236.726C571.932 231.481 530.631 220.238 495.409 203.778C474.835 194.345 456.824 182.305 442.252 168.247C433.179 159.456 425.477 149.935 418.249 139.856C412.977 132.506 408.078 125.097 403.34 117.71C392.543 100.896 382.069 84.2119 372.643 69.9589C371.787 68.6711 370.95 67.3905 370.093 66.1461C364.165 57.464 358.923 49.8528 351.746 42.842C350.889 42.01 350.002 41.1852 349.074 40.3821C340.263 32.6442 328.683 26.774 315.576 23.4015C298.952 18.9664 276.532 17.6569 257.903 23.0398C255.604 23.6982 253.365 24.4594 251.199 25.3188C241.673 29.1967 233.54 34.6173 227.448 41.149C220.392 48.5432 216.087 56.5741 211.833 64.4747C210.966 66.0809 210.096 67.6895 209.222 69.3005C200.069 85.9411 189.393 102.64 169.806 116.921C143.757 135.906 100.046 145.247 85.802 168.811C85.308 169.629 84.8544 170.461 84.441 171.3C78.4429 183.556 81.7898 197.621 91.2658 209.551C101.407 222.329 117.97 232.848 136.489 241.161" stroke="#547FE7" stroke-width="0.5" stroke-miterlimit="10"/>
<path d="M613.778 239.302C571.832 234.686 530.5 223.754 495.136 207.468C474.532 198.153 456.501 186.188 441.95 172.175C432.877 163.235 424.881 153.757 418.048 143.843C412.846 136.485 408.088 129.04 403.531 121.61C393.208 104.607 383.702 87.6051 375.305 72.4116C374.549 71.0369 373.803 69.6695 373.037 68.3238C367.774 59.0268 363.006 50.4677 356.101 42.5092C355.274 41.5445 354.407 40.6064 353.5 39.6948C345.136 30.97 333.535 24.1003 320.011 19.8636C303.257 14.582 280.615 12.8311 262.016 18.214C259.717 18.8754 257.481 19.6439 255.322 20.5147C245.792 24.4818 237.781 30.0823 232.005 36.8152C225.261 44.4916 221.42 52.8408 217.64 61.067C216.874 62.7383 216.107 64.4169 215.321 66.0954C207.206 83.4594 197.609 100.939 178.022 115.38C151.459 134.973 105.792 144.074 90.7819 168.174C90.2577 169.014 89.7738 169.867 89.3403 170.728C83.0196 183.296 86.4673 197.787 96.276 210.022C106.78 223.124 123.938 233.854 143.051 242.326" stroke="#547FE7" stroke-width="0.5" stroke-miterlimit="10"/>
<path d="M613.849 241.863C571.596 237.884 531.029 227.435 494.894 211.223C474.259 202.022 456.206 190.13 441.667 176.162C432.59 167.259 424.628 157.798 417.876 147.887C412.735 140.522 408.088 133.056 403.763 125.567C393.864 108.391 385.366 91.0562 377.996 74.9221C377.321 73.4751 376.666 72.0281 375.98 70.5811C371.393 60.604 367.119 51.1189 360.395 42.1764C359.595 41.1105 358.752 40.0541 357.865 39.0075C350.264 30.036 339.568 21.846 324.396 16.3329C307.511 10.1976 284.637 8.01262 266.068 13.381C263.77 14.0493 261.537 14.8276 259.385 15.7107C249.846 19.7752 241.954 25.5592 236.491 32.4887C230.08 40.4472 226.682 49.1293 223.386 57.6666C222.71 59.403 222.045 61.1466 221.37 62.8975C214.313 80.9417 205.765 99.2318 186.258 113.839C159.211 134.097 111.538 142.917 95.772 167.581C95.2276 168.442 94.7639 169.31 94.2699 170.193C87.6165 183.079 91.1549 197.983 101.327 210.528C112.194 223.949 129.946 234.896 149.654 243.52" stroke="#547FE7" stroke-width="0.5" stroke-miterlimit="10"/>
<path d="M613.929 244.432C571.599 241.072 530.84 230.999 494.602 214.942C473.933 205.861 455.859 194.041 441.345 180.112C432.259 171.248 424.329 161.803 417.655 151.896C412.614 144.523 408.058 137.035 403.914 129.467C394.793 112.43 387.012 95.0382 380.607 77.3748C380.033 75.8265 379.468 74.2782 378.894 72.7372C374.952 62.1089 371.222 51.6977 364.69 41.7857C363.917 40.6088 363.097 39.4368 362.23 38.2695C354.8 28.278 344.084 18.9954 328.781 12.7443C311.785 5.7336 288.649 3.13622 270.121 8.49738C267.818 9.16707 265.585 9.95283 263.437 10.8488C253.518 15.0089 246.038 21.3106 240.987 28.0971C234.878 36.3233 231.914 45.3092 229.142 54.201C228.567 56.0026 228.003 57.8186 227.418 59.6346C221.37 78.395 213.96 97.4954 194.454 112.233C166.973 133.15 117.244 141.68 100.701 166.908C100.127 167.784 99.5925 168.681 99.1187 169.578C92.1428 182.782 95.782 198.098 106.276 210.955C117.486 224.702 135.843 235.865 156.146 244.634" stroke="#547FE7" stroke-width="0.5" stroke-miterlimit="10"/>
<path d="M614 247C571.615 244.251 530.674 234.558 494.33 218.668C457.393 202.403 434.953 181.689 417.463 155.918C400.9 131.515 390.89 105.714 383.259 79.8564C379.448 66.9347 376.202 53.8755 369.004 41.4457C361.806 29.0159 350.324 17.0492 333.187 9.22812C316.049 1.40705 292.692 -1.67507 274.193 3.68608C260.846 7.55682 251.3 15.2621 245.493 23.785C239.687 32.3078 237.237 41.5904 234.908 50.8078C229.575 72.0137 223.991 94.341 202.649 110.707C174.645 132.224 122.97 140.493 105.712 166.279C96.2759 180.373 99.7438 197.389 111.317 211.433C122.889 225.476 141.842 236.878 162.729 245.799" stroke="#547FE7" stroke-width="0.5" stroke-miterlimit="10"/>
</svg>
